<svg xmlns="http://www.w3.org/2000/svg" viewBox="0 0 5120 5120">
  <path d="M0 0h5120v5120H0" fill="#fff"/>
  <path d="M1390 1250a940 940 0 00-570 180l-70-130H630l-10 890h120a2090 2400 0 0180-290c40-90 80-180 130-250a560 650 0 01180-180c80-50 160-70 270-70s210 30 290 80 170 130 230 230 110 220 150 370 50 310 50 490l-10 120H330v130l100 20 100 30a140 160 0 0170 80l20 110v490a4130 4740 0 01-10 120 2350 2690 0 00410 160 1710 1950 0 00410 60c140 0 270-30 400-90a1020 1170 0 00350-260 1090 1240 0 00230-410 1140 1300 0 0070-310h180a1130 1290 0 0070 310c60 160 140 300 240 410a1020 1170 0 00340 260 1070 1230 0 00400 90 1710 1960 0 00410-50 2350 2690 0 00410-170l-10-120v-290v-200l20-110a140 160 0 0170-80l100-30 100-20v-130H3020a1700 1950 0 010-120c0-180 20-340 50-490s90-270 150-370 140-180 230-230a590 590 0 01550-10 560 650 0 01190 180c50 70 90 160 120 250l90 290h120l-10-880h-130l-60 120a1180 1350 0 00-240-130c-100-30-200-50-330-50a1110 1270 0 00-440 100 1030 1180 0 00-350 280 1120 1280 0 00-230 430 1290 1480 0 00-90 530l10 100h-160l10-100c0-190-30-370-90-530a1120 1280 0 00-230-430 1030 1180 0 00-350-280 1110 1270 0 00-440-100zm-90 1570h800a1440 1650 0 01-30 210 1010 1160 0 01-150 360 700 800 0 01-240 250c-100 60-210 90-330 90a700 810 0 01-250-50c-70-30-130-60-160-100a1070 1230 0 01-10-180 6870 7870 0 010-160v-140c0-50 0-100 20-140a120 140 0 0170-80c30-20 80-30 140-40a1840 2110 0 01140-20zm1740 0h800l140 20 140 40c40 20 60 40 70 90a330 380 0 0120 130v300l-10 180a620 620 0 01-410 150c-130 0-230-30-330-90a700 800 0 01-240-250 1010 1160 0 01-150-360 1440 1650 0 01-40-210h10" fill="green"/>
</svg>
