<svg width="225" height="88" viewBox="0 0 225 88" fill="none" xmlns="http://www.w3.org/2000/svg">
<path d="M183.334 88C206.345 88 224.999 68.4116 224.999 44.248C224.999 20.0845 206.345 0.496094 183.334 0.496094C160.322 0.496094 141.668 20.0845 141.668 44.248C141.668 68.4116 160.322 88 183.334 88Z" fill="#40BCF4"/>
<path d="M112.693 88C135.704 88 154.359 68.4116 154.359 44.248C154.359 20.0845 135.704 0.496094 112.693 0.496094C89.6817 0.496094 71.0273 20.0845 71.0273 44.248C71.0273 68.4116 89.6817 88 112.693 88Z" fill="#00E054"/>
<path d="M42.0484 88C65.0597 88 83.7141 68.4116 83.7141 44.248C83.7141 20.0845 65.0597 0.496094 42.0484 0.496094C19.0371 0.496094 0.382812 20.0845 0.382812 44.248C0.382812 68.4116 19.0371 88 42.0484 88Z" fill="#FF8000"/>
<path fill-rule="evenodd" clip-rule="evenodd" d="M77.3718 67.4306C73.2141 60.4892 71.0078 52.4516 71.0078 44.2465C71.0078 36.0415 73.2141 28.0039 77.3718 21.0625C81.5295 28.0039 83.7358 36.0415 83.7358 44.2465C83.7358 52.4516 81.5295 60.4892 77.3718 67.4306ZM148.015 21.0625C152.172 28.0039 154.379 36.0415 154.379 44.2465C154.379 52.4516 152.172 60.4892 148.015 67.4306C143.857 60.4892 141.651 52.4516 141.651 44.2465C141.651 36.0415 143.857 28.0039 148.015 21.0625Z" fill="#556677"/>
</svg>
