<svg xmlns="http://www.w3.org/2000/svg"
aria-label="letterboxd" role="img"
viewBox="0 0 512 512"><path
d="M0 0H512V512H0"
fill="#fff"/><g transform="translate(31 175) scale(2)"><path d="M183.3 88c23 0 41.6-19.6 41.7-43.8 0-24.2-18.7-43.8-41.7-43.8-23 0-41.7 19.6-41.7 43.8 0 24.2 18.7 43.8 41.7 43.8Z" fill="#40BCF4"/><path d="M112.7 88c23 0 41.7-19.6 41.7-43.8 0-24.2-18.7-43.8-41.7-43.8-23 0-41.7 19.6-41.7 43.8 0 24.2 18.7 43.8 41.7 43.8Z" fill="#00E054"/><path d="M42 88c23 0 41.7-19.6 41.7-43.8 0-24.2-18.7-43.8-41.7-43.8-23 0-41.7 19.6-41.7 43.8 0 24.2 18.7 43.8 41.7 43.8Z" fill="#FF8000"/><path d="M77.4 67.4c-4.2-6.9-6.4-14.9-6.4-23.2 0-8.2 2.2-16.2 6.4-23.2 4.2 6.9 6.4 14.9 6.4 23.2 0 8.2-2.2 16.2-6.4 23.2ZM148 21.1c4.2 6.9 6.4 14.9 6.4 23.2 0 8.2-2.2 16.2-6.4 23.2-4.2-6.9-6.4-14.9-6.4-23.2 0-8.2 2.2-16.2 6.4-23.2Z" fill="#556677"/></g></svg>