<svg xmlns="http://www.w3.org/2000/svg" fill="none" viewBox="0 0 5120 5120">
<g mask="url(#a)"><path d="M0 0h5120v5120H0" fill="#fff"/>
<path d="M1280 3030h616v214H1720V3760h-256v-515H1280V3030Zm928 295-130 434h-246l242-729h268l248 730h-250l-132-435Zm323-295h616v214H2970V3760h-257v-515H2530V3030Zm928 295-130 434h-246l242-729h268l247 730h-250l-130-435Z" fill="#486AAE"/>
<path d="M3465 1782a660 660 0 00-91-148 891 891 0 00-346-252c-143-60-305-92-470-92a1220 1220 0 00-471 92 892 892 0 00-346 252 661 661 0 00-91 148c184-51 500-118 792-126 28 0 47 10 60 28 16 23 15 103 15 140l-9 930h100l-9-930c0-37-1-117 14-140 13-18 32-28 60-28 293 7 608 75 792 125Z" fill="#486AAE" />
<path d="M3506 1915c-270-70-450-83-627-94-155-10-157 53-142 174l4 27c35 237 78 472 128 705 377-98 650-372 650-693 0-40-5-80-13-120Zm-1125 80c16-120 14-184-141-174a3004 3004 0 00-627 94 613 613 0 00 130 508 889 889 0 00 346 251c52 22 106 40 160 54 52-243 96-487 132-733Z" fill="#486AAE"/></g></svg>
